<?xml version="1.0" encoding="utf-8"?>
<!-- Generator: Adobe Illustrator 26.5.1, SVG Export Plug-In . SVG Version: 6.00 Build 0)  -->
<svg version="1.1" xmlns="http://www.w3.org/2000/svg" xmlns:xlink="http://www.w3.org/1999/xlink" x="0px" y="0px"
	 viewBox="0 0 1020.5 934.4" style="enable-background:new 0 0 1020.5 934.4;" xml:space="preserve">
<style type="text/css">
	.st0{fill:#89BA28;}
	.st1{fill:none;stroke:#40220D;stroke-width:2;stroke-miterlimit:10;}
</style>
<g id="レイヤー_1">
</g>
<g id="layer">
	<g>
		<path class="st0" d="M269.6,464.3c0,0-43.7-1.2-48.1-2s-48.5-4.4-48.5-4.4l-39.8-27.4c0,0-85.5,50.1-101,70.8
			c-15.5,20.7-14.7,74.4,12.3,85.1c27,10.7,57.7-0.4,79.1,6c21.5,6.4,53.3,50.9,53.3,78.3s9.1,97,15.1,112.1
			c6,15.1,35.4,14.7,51.3-2.8c15.9-17.5,25.8-29.4,33.4-51.3c7.6-21.9,31-19.1,27.8-52.5c-3.2-33.4-13.9-20.7,19.5-62.4
			s34.6-54.1,26.6-54.5s-35.4,13.9-41.4,10.3c-6-3.6-34.2-86.7-34.2-86.7l47.3,73.2c0,0,35-2,48.1-15.1
			c13.1-13.1,22.7-27.4,22.7-27.4l-15.1-16.7l-30.2-5.2L336,472.2l11.9-1.6c0,0,38.2,27.8,51.3,27.8s39,1.6,39,1.6
			s26.2,42.1,27.8,51.7c1.6,9.5,11.9,31.8,11.9,31.8l7.6-1.6c0,0,13.5-47.7,16.3-51.3c2.8-3.6,45.3-21.9,45.3-21.9l16.3,20.3
			l-2,10.7l17.1,3.6v25.8l7.2,22.3l11.9,20.5l12.3,3.7c0,0,1.2-15.1,0-16.3c-1.2-1.2-20.3-14.7-20.3-14.7l-1.6-26.2l18.7,11.5
			l11.1,8.4l17.1-12.7l-3.6-17.9l-19.5-21.5l9.1-7.6c0,0,14.3,5.2,33-6.8c18.7-11.9,28.2-18.3,29.8-27.8s4-23.9,0-34.6
			c-4-10.7-4-10.7-4-10.7l19.5-8.4l-20.7-2.8l-9.9-8l16.3-7.2l14.3,1.6l14.3,15.9l-4.4,10.7l8,8l11.9-11.1l-2-13.9l-4-6.8l13.1-20.3
			c0,0,14.8,2.8,18.3,0c3.6-2.8,23.4-43.7,23.4-43.7s0-29.8,0-31.4s-5.6-12.7-9.9-11.9c-4.4,0.8-13.5-1.6-13.5-1.6
			s26.2-27.4,34.6-33.4c8.4-6,14.8-6.8,24.3-6.8c9.5,0,8.3,3.2,13.1,5.2c4.8,2,19.1-5.2,19.1-5.2l15.5-22.7l23.9-7.6
			c0,0,6.8,14.3-4.8,26.2s-22.7,23.9-24.7,33.4c-2,9.5-3.6,36.2-0.4,38.6s11.5-3.2,15.1-15.9c3.6-12.7,17.9-33,16.7-41
			c-1.2-8,5.6-17.5,14.7-21.1c9.1-3.6,17.1-5.2,29-13.1c11.9-8,23.1-8.4,23.5-15.1c0.4-6.8-5.2-18.3-5.2-18.3s13.9-13.5,15.9-13.5
			s2,0,2,0s13.5,11.5,19.9,12.7s21.9-15.5,21.9-15.5s-25.1-20.3-31.8-25.1c-6.8-4.8-14.3-9.5-14.3-9.5l-37-15.1
			c0,0-9.9,9.9-29.8,6.8c-19.9-3.2-45.3-9.5-69.6-22.7c-24.3-13.1-52.9-13.9-52.9-13.9s-33.8,10.3-37,10.3s-60.4-22.7-72.8-28.6
			c-12.3-6-29-13.5-29-15.5s15.1-34.6,13.1-39.4s-36.6-20.3-40.2-23.1S595.6,32.1,592,34.8c-3.6,2.8-32.6,12.7-32.6,12.7l-57.7,50.9
			l-35.8,8c0,0-34.2,8.4-33.4,20.7s-31.4,36.6-31.4,36.6S337.1,182,336,182c-1.2,0-53.3,35.8-53.3,35.8l-19.9-31.4l31.4,9.5
			l14.7-18.3c0,0-60-39.8-66-42.5s-39,2-41.4,10.7c-2.4,8.7-37.8,81.5-37.8,81.5l-30.2,18.3l-6.8,24.3l7.6,13.9l27.4-21.5l8,30.6
			c0,0,25.1-1.2,29-11.9s-2.4-27.8-2.4-33.4c0-5.6,0-7.6,0-7.6s6-23.9,6.8-25.4s0.8-1.6,0.8-1.6l23.9-15.5c0,0,15.9-1.2,4,11.1
			c-11.9,12.3-20.3,32.6-20.3,32.6v16.7l24.3-2.4l2.4,12.3l-24.7,15.9c0,0-0.4,16.7-10.7,22.3c-10.3,5.6-42.9,9.9-42.9,9.9
			s-6-4.8-6-6c0-1.2,5.6-24.7,5.6-24.7h-9.5l-4.8,23.5l-9.1,9.9c0,0-8.7,20.3-10.3,22.3c-1.6,2-35.4,18.7-35.4,18.7s2,8.7,5.2,10.3
			c3.2,1.6,6,19.5,6,19.5l-33.4,4l-3.2,26.2l9.1,9.5l12.3,5.2l19.9-7.6l8.4-17.9l22.7-19.5l16.7-6.4l15.5,18.3
			c0,0,15.1,15.1,15.5,16.3c0.4,1.2,0,10.3,0,10.3l4.4-0.8l1.2-16.7l8.4-4.3L168.6,386l0.8-10.7l27,15.9l7.2,15.2l5.6,17l11.5,9.9
			l3.6-5.2l-4.8-19.9l23.5-5.6l0.4-19.5l13.1-17.1l5.2,3.2l7.2,12.3l14.7,0.8l-6-13.1l16.7-3.6l-3.6,13.9l15.1,19.1
			c0,0,0,8.9-17.5,7.7c-17.5-1.3-42.9,7.9-42.9,7.9l-11.9,7.6l6.4,11.1l41.8,2L269.6,464.3z"/>
		<path class="st0" d="M85.4,268.7l-7.2,19.5c0,0,15.1,16.7,15.1,24.7c0,8-7.6,21.1-7.6,21.1v9.9l27.8-6.8l2-15.1
			c0,0-13.9-12.3-14.3-15.7S97,294.5,97,294.5v-16.3L85.4,268.7z"/>
		<polygon class="st0" points="71.5,306.2 64.8,313.6 56.8,327.9 56.8,334.3 73.5,331.9 78.3,320.2 78.3,309.2 		"/>
		<path class="st0" d="M342.7,682.2c0,0-11.1,11.5-13.1,13.5c-2,2-11.9,12.7-11.9,14.7c0,2,0,19.5,0,19.5v11.9l20.7,2.8l12.3-42.1
			v-22.7L342.7,682.2z"/>
		<path class="st0" d="M759,674.2l-40.2,17.1l-66,36.6c0,0,4.8,28.6,4.8,32.6c0,4-0.8,31.4-0.8,31.4l16.3,1.7c0,0,50.9-18,63.2-18
			c12.3,0,25.8,7.6,32.2,16.3c6.4,8.7,13.9,19.9,15.9,19.9c2,0,21.9,2.4,21.9,2.4l14.7-9.9l13.1-23.5c0,0,5.6,0.8,5.2-17.1
			c-0.4-17.9-21.9-52.9-33-68.8s-17.1-22.7-17.1-22.7l-9.5,33l-25-15.1L759,674.2z"/>
		<polygon class="st0" points="818.7,828.5 796.8,828.5 805.2,846 817.1,846 		"/>
		<polygon class="st0" points="930.4,835.3 920.5,828.5 910.5,850 899,862.3 914.7,867.1 922.5,852 930.4,846 		"/>
		<polygon class="st0" points="928.8,796.3 934.4,810.6 934.4,820.6 938.4,832.9 945.9,823.7 955.1,807.8 947.1,806.6 938.8,799.1 
					"/>
		<polygon class="st0" points="692.2,492.1 679.9,502.1 683.1,514 692.2,505.6 		"/>
		<path class="st0" d="M565.4,595.5l16.3,8.4l8.4,8l8.7,6l8.4,8l8.7,12.3l-3.2,8.7l-8.7,2c0,0-14.3-25.4-15.5-26.6
			c-1.2-1.2-23.1-23.5-23.1-23.5V595.5z"/>
		<polygon class="st0" points="615.9,651.2 624.6,648.8 632.6,651.2 642.1,651.2 650.5,653.6 656.4,661.9 619.1,657.9 		"/>
		<path class="st0" d="M494.2,576.8l-2.8,8l1.4,6.4c0,0,10.9,0.4,11.3-3.2C504.5,584.4,494.2,576.8,494.2,576.8z"/>
		<path class="st0" d="M733.2,624.5l17.1,3.6l6.4,6.4l6.4-5h15.9c0,0,17.5,1.8,23.1,7c5.6,5.2,11.6,12.3,11.6,12.3l-1.6,6.6
			l19.1,12.1c0,0-21.5,3.2-21.5,0s-13.5-8.7-13.5-8.7l-8.4,6.4l-15.1-7.2l-5.6-11.2l-20.9-12.2l-10.5-3.6L733.2,624.5z"/>
		<path class="st0" d="M788.5,308.8l-3.6,6.8v11.1l3.6,41l-3.6,7.2l6.4-3.6l4.4,1.2l-5.4-15.1l2.2-7.2l5.2,2c0,0-6.4-6.4-6.4-20.3
			S788.5,308.8,788.5,308.8z"/>
		<polygon class="st0" points="787.3,381.6 784.9,392.3 776.5,396.7 776.5,403.8 781.9,403.8 781.9,397.9 796,405 805.6,391.2 		"/>
		<polygon class="st0" points="782.1,408.1 779.3,410 779.3,423.1 767.8,435 765,432.6 753.1,441.4 739.9,446.1 734.8,450.5 
			757,450.5 757.2,456.3 765.6,452.8 773.8,447.1 778.9,442.6 782.1,448 784.9,424.3 789.8,419.5 		"/>
		<polygon class="st0" points="751.6,450.6 747.1,452.1 742.5,453.8 742.5,458.6 749.3,458.6 751.6,456.6 		"/>
		<path class="st0" d="M734,452.2c0,0-5.2-0.8-4.4,1.6c0.8,2.4-0.1,6.5-0.1,6.5l2.6,8.2l6.2-5.2v-9.1l-0.7-0.3L734,452.2z"/>
		<path class="st0" d="M670.4,590.3c0,0-4-5.6-10.3,2.6c-6.4,8.2-15.9,15.7-16.5,16.1s-12.5,2.4-12.5,2.4s-1,10.1,0,12.1
			c1,2,5.4,0.2,5.2,4.2c-0.2,4-3.8,6.4,0,6.6s4.8,0,4.8,0s2.2-2.4,7.2,0.1c5,2.5,9.5,5.7,9.5,5.7s6.6-2.6,7.4-7.4
			c0.8-4.8,4.6-13.5,6.4-14.3c1.8-0.8,3.6-3.2,3.4-4.1c-0.2-0.9-5.2-11.4-5.2-11.4s4.4-3,5.2-5.6S670.4,590.3,670.4,590.3z"/>
		<path class="st0" d="M710.5,565.7c1.7,3.8-5.6,7.6-7.4,6.6c-1.4-0.8-0.7-4.7,0.2-7C703.4,565.3,709.7,563.8,710.5,565.7z"/>
		<path class="st0" d="M699.6,569.1c-1.8-0.5-6,5.5-4.8,7.4c0.7,1.1,3.3,1,4.8-0.2C702.2,574.2,701,569.5,699.6,569.1z"/>
		<path class="st0" d="M711.7,574.2c-1.4-0.1-1.3,3.7-5,5.8c-3.3,1.9-5.6,0-9.9,2c-2.9,1.4-4.9,3.6-4.6,4.2c0.5,0.8,5.6-2.2,8-0.2
			c0.9,0.8,0.5,1.5,1.6,3.2c1.4,2,3.9,3.8,5.2,3.2c1.4-0.7,0.2-4.1,1.8-5c1.4-0.8,3.1,1.4,4.4,0.8
			C715.9,586.9,714.3,574.5,711.7,574.2z"/>
		<path class="st0" d="M686.7,529.9c1.3-0.7,5.5,2.4,6.4,6.6c0.6,2.8-0.7,4-0.6,9.8c0,2.5,0,3.7,0.6,4.6c2.2,3.5,7.9,1.8,8.8,4.3
			c0.6,1.7-1.3,4.6-3.4,5.1c-1.9,0.4-3-1.2-6.9-4.3c-7-5.6-10.8-6.5-10.7-9.4c0-1.3,0.7-2.5,1.6-4c1.2-2,2-2.4,2.8-3.6
			C688,535.2,685.3,530.6,686.7,529.9z"/>
		<path class="st0" d="M426.6,26.5c-6,12.7-9.9,16.3-18.3,17.1s-13.1,0.8-23.1,12.7c-9.9,11.9-17.5,31-17.5,31l7.6,5.6
			c0,0,5.6-17.1,17.5-25.1s22.3-12.3,23.5-12.7c1.2-0.4,12.3,3.6,14.3-3.2c2-6.8,6.4-22.7,6.4-23.9S426.6,26.5,426.6,26.5z"/>
		<path class="st0" d="M372.9,99.3l-6.8-4l-8.4,19.5c0,0-3.6,6.8,0,8.4c3.6,1.6,6.8,6.4,6.8,6.4l8.4,3.6h11.9c0,0-9.9-1.6-11.1-11.5
			C372.5,111.6,372.9,99.3,372.9,99.3z"/>
	</g>
	<g>
		<g>
			<g>
				<path class="st1" d="M263.9,462.7c-0.5,1.3-2.1,2.3-3.5,2.3c0,0-41.2-1.1-45.6-1.9c-4.4-0.8-46-4.2-46-4.2
					c-1.4-0.1-3.5-0.8-4.6-1.6l-35.6-24.6c-1.1-0.8-3.1-0.9-4.3-0.2c0,0-83.3,48.8-98.8,69.5c-15.5,20.7-14.7,74.4,12.3,85.1
					s57.7-0.4,79.1,6s53.3,50.9,53.3,78.3s9.1,97,15.1,112.1c6,15.1,35.4,14.7,51.3-2.8s25.8-29.4,33.4-51.3
					c7.6-21.9,31-19.1,27.8-52.5c-3.2-33.4-13.9-20.7,19.5-62.4s34.6-54.1,26.6-54.5c-8-0.4-35.4,13.9-41.4,10.3
					c-6-3.6-33.4-84.3-33.4-84.3c-0.4-1.3-0.2-1.4,0.6-0.3l44.6,68.9c0.8,1.2,2.5,2.1,3.9,2c0,0,32.5-1.8,45.6-15
					s21.3-25.3,21.3-25.3c0.8-1.2,0.6-2.9-0.3-4l-11.7-13c-0.9-1-2.8-2.1-4.2-2.3l-25.2-4.3c-1.4-0.2-3.1-1.4-3.8-2.6l-9.3-15.2
					c-0.7-1.2-0.2-2.3,1.2-2.5l6.9-0.9c1.4-0.2,3.4,0.3,4.5,1.2c0,0,36.1,26.3,49.3,26.3c13.1,0,36.4,1.4,36.4,1.4
					c1.4,0.1,3.1,1.1,3.9,2.3c0,0,24.9,40,26.5,49.5s10.9,29.5,10.9,29.5c0.6,1.3,2.2,2.1,3.5,1.8l2.6-0.6c1.4-0.3,2.8-1.6,3.2-2.9
					c0,0,12.8-45.3,15.6-48.9c2.8-3.6,43-20.9,43-20.9c1.3-0.5,3-0.1,3.9,1l13.1,16.3c0.9,1.1,1.4,3.1,1.1,4.5l-1.1,5.8
					c-0.3,1.4,0.7,2.7,2,3l12.2,2.5c1.4,0.3,2.5,1.7,2.5,3v20.8c0,1.4,0.3,3.6,0.8,4.9l5.6,17.5c0.4,1.3,1.3,3.4,2,4.6l9.4,16.2
					c0.7,1.2,2.4,2.5,3.7,2.9l7.5,2.3c1.3,0.4,2.5-0.4,2.6-1.8c0,0,1-12.6-0.2-13.8c-1.2-1.2-18.2-13.3-18.2-13.3
					c-1.1-0.8-2.1-2.6-2.2-4l-1.3-21.2c-0.1-1.4,0.8-1.9,2-1.2l14.4,8.9c1.2,0.7,3.1,2,4.2,2.8l7.1,5.3c1.1,0.8,2.9,0.8,4,0l13-9.7
					c1.1-0.8,1.8-2.6,1.5-4l-2.6-12.9c-0.3-1.4-1.3-3.3-2.2-4.3L607,529c-0.9-1-0.8-2.6,0.2-3.5l5.3-4.3c1.1-0.9,3-1.2,4.3-0.8
					c0,0,11.9,4.3,30.6-7.6c18.7-11.9,28.2-18.3,29.8-27.8s4-23.9,0-34.6c-4-10.7-2.9-11.2-1.7-11.7l14.8-6.4
					c1.3-0.5,1.2-1.1-0.2-1.3l-15.7-2.1c-1.4-0.2-3.4-1-4.5-1.9l-6-4.8c-1.1-0.9-0.9-2,0.3-2.6l11.7-5.1c1.3-0.6,3.4-0.9,4.8-0.7
					l9.3,1c1.4,0.2,3.3,1.1,4.2,2.2l10.9,12.2c0.9,1,1.3,2.9,0.7,4.2l-2.5,6.1c-0.5,1.3-0.1,3.1,0.8,4.1l4.4,4.4c1,1,2.6,1,3.6,0.1
					l8.2-7.7c1-0.9,1.7-2.8,1.5-4.2L721,427c-0.2-1.4-0.9-3.5-1.6-4.7l-1.4-2.4c-0.7-1.2-0.7-3.1,0.1-4.3l10.4-16
					c0.8-1.2,2.5-1.9,3.9-1.7c0,0,12.3,2.3,15.8-0.5c3.6-2.8,22.3-41.5,22.3-41.5c0.6-1.2,1.1-3.4,1.1-4.8c0,0,0-27.3,0-28.9
					s-5.6-12.7-9.9-11.9c-4.4,0.8-11.1-1-11.1-1c-1.3-0.4-1.7-1.5-0.7-2.5c0,0,24.5-25.6,32.8-31.6c8.4-6,14.8-6.8,24.3-6.8
					c9.5,0,8.3,3.2,13.1,5.2c4.8,2,16.8-4,16.8-4c1.2-0.6,2.9-2.1,3.7-3.2l12.7-18.5c0.8-1.1,2.5-2.4,3.8-2.8l19-6
					c1.3-0.4,2.9,0.3,3.5,1.5c0,0,5.7,12-5.8,24c-11.5,11.9-22.7,23.9-24.7,33.4c-2,9.5-3.6,36.2-0.4,38.6s11.5-3.2,15.1-15.9
					c3.6-12.7,17.9-33,16.7-41c-1.2-8,5.6-17.5,14.7-21.1c9.1-3.6,17.1-5.2,29-13.1c11.9-8,23.1-8.4,23.5-15.1
					c0.4-6.8-4.1-16-4.1-16c-0.6-1.3-0.3-3.1,0.7-4c0,0,12.1-11.8,14.1-11.8s2.9,0.7,3.9,1.6c0,0,11.6,9.9,18,11.1
					s20.2-13.7,20.2-13.7c0.9-1,0.8-2.6-0.2-3.4c0,0-23.1-18.7-29.8-23.5c-6.8-4.8-12.2-8.2-12.2-8.2c-1.2-0.7-3.2-1.8-4.5-2.3
					l-32.3-13.2c-1.3-0.5-3.1-0.2-4.1,0.8c0,0-8.2,8.2-28,5c-19.9-3.2-45.3-9.5-69.6-22.7c-24.3-13.1-50.4-13.8-50.4-13.8
					c-1.4,0-3.6,0.3-4.9,0.7c0,0-31.4,9.6-34.6,9.6S669.3,104,657,98.1c-12.3-6-29-13.5-29-15.5c0-2,15.1-34.6,13.1-39.4
					s-36.6-20.3-40.2-23.1S589,32.9,585.4,35.6c-3.6,2.8-30.2,11.9-30.2,11.9c-1.3,0.5-3.2,1.6-4.3,2.5L497,97.6
					c-1,0.9-3,1.9-4.4,2.2l-30.9,6.9c-1.4,0.3-3.6,0.8-4.9,1.1c0,0-31.7,7.8-30.9,20.1S396.6,163,396.6,163
					c-1.1,0.8-3.1,1.8-4.4,2.2c0,0-61.6,17.6-62.8,17.6c-1.2,0-51.2,34.4-51.2,34.4c-1.1,0.8-2.7,0.5-3.4-0.7l-17.2-27.1
					c-0.7-1.2-0.3-1.8,1.1-1.4l26.6,8.1c1.3,0.4,3.1-0.2,4-1.2l11.5-14.4c0.9-1.1,0.6-2.6-0.5-3.4c0,0-57.9-38.4-63.9-41.2
					c-6-2.8-39,2-41.4,10.7c-2.4,8.7-36.7,79.2-36.7,79.2c-0.6,1.2-2.1,2.9-3.3,3.6l-25.9,15.7c-1.2,0.7-2.5,2.4-2.8,3.7l-5.4,19.4
					c-0.4,1.3-0.1,3.4,0.5,4.7l5.1,9.5c0.7,1.2,2.1,1.5,3.2,0.7l23.5-18.4c1.1-0.9,2.3-0.5,2.6,0.9l6.7,25.7
					c0.3,1.3,1.8,2.4,3.2,2.3c0,0,22.5-1.1,26.5-11.8c4-10.7-2.4-27.8-2.4-33.4c0-5.6,0-5.6,0-5.6c0-1.1,0.3-3.1,0.6-4.4
					c0,0,5.4-21.4,6.1-23s1.7-2.2,2.9-3l19.6-12.8c1.2-0.8,3.3-1.5,4.6-1.6c0,0,13.4-1,1.5,11.3c-11.9,12.3-19.3,30.3-19.3,30.3
					c-0.5,1.3-1,3.5-1,4.9v11.6c0,1.4,1.1,2.4,2.5,2.3l19.2-1.9c1.4-0.1,2.7,0.9,3,2.2l1.4,7.4c0.3,1.4-0.5,3.1-1.6,3.8L209,283.2
					c-1.2,0.8-2.1,2.5-2.2,3.9c0,0-0.3,14.2-10.7,19.7c-10.3,5.6-40.4,9.6-40.4,9.6c-1.4,0.2-3.4-0.4-4.5-1.2c0,0-4-3.2-4-4.4
					c0-1.2,5-22.2,5-22.2c0.3-1.4-0.6-2.5-1.9-2.5h-4.5c-1.4,0-2.8,1.1-3,2.5l-3.8,18.5c-0.3,1.4-1.3,3.3-2.2,4.3l-5.7,6.2
					c-0.9,1-2.2,2.9-2.7,4.2c0,0-7.7,18-9.3,19.9c-1.6,2-33.1,17.6-33.1,17.6c-1.2,0.6-2,2.2-1.7,3.6c0,0,1.4,6.3,4.6,7.9
					c3.2,1.6,5.6,17,5.6,17c0.2,1.4-0.7,2.6-2.1,2.8L63.8,394c-1.4,0.2-2.6,1.4-2.8,2.8L58.5,418c-0.2,1.4,0.5,3.3,1.4,4.3l5.7,5.9
					c1,1,2.8,2.3,4.1,2.8l7.7,3.2c1.3,0.5,3.4,0.6,4.7,0.1l15.2-5.8c1.3-0.5,2.8-1.9,3.4-3.2l6.2-13.3c0.6-1.3,1.9-3,3-3.9
					l18.8-16.2c1.1-0.9,3-2.1,4.3-2.5l12-4.6c1.3-0.5,3.1,0,4,1l12.2,14.4c0.9,1.1,2.4,2.7,3.4,3.7c0,0,13.3,13.3,13.7,14.5
					c0.4,1.2,0.1,7.8,0.1,7.8c-0.1,1.4,0.9,2.3,2.1,2.1c1.2-0.2,2.3-1.5,2.4-2.9l0.8-11.7c0.1-1.4,1.2-3,2.4-3.7l3.9-2
					c1.2-0.6,1.3-1.8,0.2-2.6l-26-17.6c-1.2-0.8-2-2.5-1.9-3.9l0.4-5.7c0.1-1.4,1.2-1.9,2.4-1.2l22.7,13.3c1.2,0.7,2.7,2.3,3.3,3.6
					l5,10.6c0.6,1.3,1.4,3.4,1.9,4.7l4,12.2c0.4,1.3,1.6,3.1,2.7,4l7.7,6.6c1.1,0.9,2.6,0.7,3.4-0.4l0.7-1c0.8-1.1,1.2-3.2,0.8-4.5
					l-3.6-15c-0.3-1.4,0.5-2.7,1.9-3l18.5-4.4c1.4-0.3,2.5-1.7,2.5-3.1l0.3-14.4c0-1.4,0.7-3.4,1.6-4.5l10-13.1
					c0.8-1.1,2.5-1.4,3.7-0.7l0.9,0.5c1.2,0.7,2.7,2.3,3.4,3.5l4.6,8c0.7,1.2,2.4,2.2,3.8,2.3l9.7,0.5c1.4,0.1,2.1-0.9,1.5-2.2
					l-3.9-8.5c-0.6-1.3,0.1-2.5,1.4-2.8l11.8-2.5c1.4-0.3,2.2,0.6,1.8,1.9l-2.3,9c-0.3,1.3,0.1,3.3,0.9,4.4l12,15.1
					c0.9,1.1,1.6,3.1,1.6,4.5c0,0,0,6.4-17.5,5.1c-17.5-1.3-40.6,7-40.6,7c-1.3,0.5-3.3,1.5-4.5,2.2l-7.7,4.9
					c-1.2,0.7-1.6,2.3-0.9,3.5l3.9,6.7c0.7,1.2,2.4,2.2,3.8,2.3l36.7,1.7c1.4,0.1,2.1,1.2,1.6,2.5L263.9,462.7z"/>
			</g>
			<g>
				<path class="st1" d="M80.8,271.1c-1.1-0.9-2.3-0.5-2.8,0.8l-5.4,14.7c-0.5,1.3-0.1,3.2,0.8,4.2c0,0,13.4,14.8,13.4,22.8
					s-6.3,18.9-6.3,18.9c-0.7,1.2-1.3,3.3-1.3,4.7v4.9c0,1.4,1.1,2.3,2.5,1.9l22.9-5.6c1.3-0.3,2.6-1.7,2.8-3.1l1.3-10.1
					c0.2-1.4-0.5-3.3-1.6-4.2c0,0-12-10.7-12.4-14s-3.3-9.5-3.3-9.5c-0.6-1.3-1.1-3.4-1.1-4.8v-11.3c0-1.4-0.9-3.2-1.9-4.1
					L80.8,271.1z"/>
			</g>
			<g>
				<path class="st1" d="M67.2,308c-1.3-0.6-3.1-0.2-4,0.8l-3.3,3.6c-0.9,1-2.3,2.9-2.9,4.1l-5.5,9.9c-0.7,1.2-1.2,3.3-1.2,4.7v1.3
					c0,1.4,1.1,2.4,2.5,2.2l11.7-1.7c1.4-0.2,2.9-1.4,3.5-2.7l2.9-7c0.5-1.3,1-3.5,1-4.9v-6c0-1.4-1-3-2.3-3.5L67.2,308z"/>
			</g>
			<g>
				<path class="st1" d="M338.5,682.3c-1.3,0.4-3.2,1.5-4.2,2.5c0,0-9.4,9.7-11.4,11.7c-2,2-11.9,12.7-11.9,14.7c0,2,0,17,0,17
					c0,1.4,0,3.7,0,5.1v6.9c0,1.4,1.1,2.7,2.5,2.9l15.7,2.1c1.4,0.2,2.8-0.8,3.2-2.1l10.9-37.3c0.4-1.3,0.7-3.6,0.7-4.9v-17.6
					c0-1.4-1.1-2.2-2.4-1.8L338.5,682.3z"/>
			</g>
			<g>
				<path class="st1" d="M751.7,677.5c0.4-1.3-0.4-2-1.7-1.4l-35.5,15.1c-1.3,0.5-3.3,1.5-4.5,2.2l-61.6,34.1
					c-1.2,0.7-2,2.3-1.8,3.7c0,0,4.4,26.1,4.4,30.1c0,4-0.7,28.9-0.7,28.9c0,1.4,1.1,2.6,2.4,2.8l11.3,1.2c1.4,0.1,3.6-0.1,4.9-0.6
					c0,0,48.5-17.2,60.8-17.2c12.3,0,25.8,7.6,32.2,16.3c6.4,8.7,13.9,19.9,15.9,19.9c2,0,19.4,2.1,19.4,2.1
					c1.4,0.2,3.4-0.3,4.6-1.1l10.5-7.1c1.2-0.8,2.6-2.4,3.3-3.6l10.7-19.1c0.7-1.2,2.4-2,3.7-1.8c0,0,3.1,0.4,2.7-17.5
					c-0.4-17.9-21.9-52.9-33-68.8s-15.4-20.8-15.4-20.8c-0.9-1-2-0.8-2.4,0.5l-8.1,28.2c-0.4,1.3-1.7,1.8-2.9,1.1l-20.7-12.5
					c-1.2-0.7-1.9-2.4-1.5-3.7L751.7,677.5z"/>
			</g>
			<g>
				<path class="st1" d="M811.8,831.8c0.1-1.4-0.9-2.5-2.3-2.5h-16.8c-1.4,0-2,1-1.4,2.3l6.2,12.9c0.6,1.3,2.2,2.3,3.6,2.3h6.9
					c1.4,0,2.6-1.1,2.8-2.5L811.8,831.8z"/>
			</g>
			<g>
				<path class="st1" d="M923.8,838.6c0-1.4-0.9-3.2-2.1-3.9l-5.8-3.9c-1.1-0.8-2.6-0.4-3.1,0.9l-7.8,16.9c-0.6,1.3-1.8,3.1-2.8,4.1
					l-8.1,8.6c-0.9,1-0.6,2.2,0.7,2.6l10.9,3.3c1.3,0.4,2.9-0.3,3.6-1.5l5.4-10.6c0.6-1.2,2.1-2.9,3.2-3.8l3.9-2.9
					c1.1-0.8,2-2.7,2-4V838.6z"/>
			</g>
			<g>
				<path class="st1" d="M924.6,797.8c-1.3-0.4-2,0.4-1.5,1.7l3.7,9.6c0.5,1.3,0.9,3.5,0.9,4.9v4.9c0,1.4,0.3,3.6,0.8,4.9l2.4,7.5
					c0.4,1.3,1.5,1.5,2.4,0.5l4.3-5.3c0.9-1.1,2.2-2.9,2.9-4.1l6.6-11.5c0.7-1.2,0.1-2.4-1.2-2.6l-3-0.4c-1.4-0.2-3.3-1.1-4.4-2.1
					l-4.6-4.2c-1-0.9-3-2-4.3-2.4L924.6,797.8z"/>
			</g>
			<g>
				<path class="st1" d="M685.6,495.4c0-1.4-0.9-1.8-2-0.9l-8.4,6.8c-1.1,0.9-1.7,2.7-1.3,4l1.9,7c0.4,1.3,1.5,1.7,2.5,0.7l5.4-4.9
					c1-0.9,1.9-2.8,1.9-4.2V495.4z"/>
			</g>
			<g>
				<path class="st1" d="M558.8,597.9c0-0.9,1-1.1,2.2-0.4l11.8,6c1.2,0.6,3.1,1.9,4.1,2.9l4.7,4.5c1,1,2.8,2.4,3.9,3.2l4.6,3.1
					c1.1,0.8,2.9,2.2,3.9,3.2l4.7,4.5c1,1,2.5,2.7,3.3,3.8l5.8,8.2c0.8,1.1,1.1,3.1,0.6,4.4l-1.5,4c-0.5,1.3-2,2.6-3.3,2.9l-3.8,0.9
					c-1.4,0.3-3-0.4-3.7-1.6c0,0-13.1-23.2-14.3-24.4c-1.2-1.2-21.3-21.7-21.3-21.7C559.6,600.3,558.8,598.8,558.8,597.9z"/>
			</g>
			<g>
				<path class="st1" d="M610.3,654.3c-0.6-1.3,0-2.6,1.4-2.9l3.9-1.1c1.3-0.4,3.5-0.3,4.9,0.1l3.1,0.9c1.3,0.4,3.6,0.7,4.9,0.7h4.5
					c1.4,0,3.6,0.3,5,0.7l3.5,1c1.3,0.4,3.1,1.6,3.9,2.7l3,4.2c0.8,1.1,0.3,1.9-1,1.8L615,659c-1.4-0.1-3-1.3-3.6-2.6L610.3,654.3z"
					/>
			</g>
			<g>
				<path class="st1" d="M489.6,579.1c-1.1-0.8-2.4-0.4-2.9,0.9l-1.1,3.2c-0.5,1.3-0.6,3.5-0.3,4.9l0.3,1.4c0.3,1.4,1.7,2.5,3.1,2.6
					c0,0,8.4,0.3,8.8-3.3C497.9,585.2,489.6,579.1,489.6,579.1z"/>
			</g>
			<g>
				<path class="st1" d="M727.5,627.7c-0.5-1.3,0.2-2.1,1.6-1.8l12.2,2.5c1.4,0.3,3.3,1.3,4.3,2.3l2.8,2.8c1,1,2.7,1.1,3.8,0.2
					l2.4-1.9c1.1-0.9,3.1-1.6,4.5-1.6h10.9c1.4,0,3.7,0.1,5,0.3c0,0,15,1.5,20.6,6.7c5.6,5.2,9.9,10.4,9.9,10.4c0.9,1.1,1.3,3,1,4.4
					l-0.4,1.7c-0.3,1.3,0.4,3.1,1.5,3.8l14.8,9.4c1.2,0.7,1,1.5-0.4,1.7c0,0-19,2.8-19-0.4s-11.2-7.8-11.2-7.8
					c-1.3-0.5-3.2-0.3-4.3,0.6l-4.3,3.3c-1.1,0.8-3,1-4.3,0.4l-10.5-5c-1.3-0.6-2.8-2.1-3.4-3.3l-3.3-6.7c-0.6-1.2-2.1-2.8-3.3-3.5
					l-16.5-9.7c-1.2-0.7-3.3-1.6-4.6-2.1l-5.8-2c-1.3-0.4-2.8-1.9-3.3-3.2L727.5,627.7z"/>
			</g>
			<g>
				<path class="st1" d="M782.6,312c-0.4-1.3-1.3-1.4-1.9-0.2l-1.2,2.3c-0.6,1.2-1.2,3.4-1.2,4.8v6.1c0,1.4,0.1,3.7,0.2,5l3.1,35.9
					c0.1,1.4-0.3,3.5-0.9,4.8l-1.3,2.6c-0.6,1.2-0.1,1.7,1.1,1l2-1.1c1.2-0.7,3.2-1,4.4-0.6c1.2,0.3,1.8-0.5,1.3-1.8l-3.7-10.4
					c-0.5-1.3-0.5-3.5-0.1-4.8l0.7-2.3c0.4-1.3,1.8-2,3.1-1.5l0.5,0.2c1.3,0.5,1.6,0.1,0.6-0.9c0,0-4.6-4.6-4.6-18.5
					C784.6,318.8,782.6,312,782.6,312z"/>
			</g>
			<g>
				<path class="st1" d="M782.9,383.5c-1.2-0.6-2.5-0.1-2.8,1.3l-1.3,5.8c-0.3,1.4-1.6,3-2.8,3.6l-3.9,2c-1.2,0.6-2.2,2.3-2.2,3.7
					v2.1c0,1.4,1.1,2.5,2.5,2.5h0.3c1.4,0,2.5-1.1,2.5-2.5v-0.9c0-1.4,1-2,2.3-1.4l9.6,4.9c1.2,0.6,2.9,0.2,3.7-0.9l6.8-9.7
					c0.8-1.1,0.4-2.6-0.8-3.2L782.9,383.5z"/>
			</g>
			<g>
				<path class="st1" d="M776.9,411c-0.8-1.1-2-1.7-2.8-1.1c-0.8,0.5-1.4,2.1-1.4,3.5v8.1c0,1.4-0.8,3.3-1.8,4.3l-8,8.3
					c-1,1-2.4,1.3-3.1,0.6c-0.8-0.7-2.3-0.5-3.4,0.3l-7.9,5.8c-1.1,0.8-3.1,1.9-4.4,2.4l-8.4,3c-1.3,0.5-3.2,1.6-4.3,2.5l-1.3,1.1
					c-1.1,0.9-0.8,1.6,0.6,1.6h17.2c1.4,0,2.6,1.1,2.6,2.5l0,0.8c0,1.4,1.1,2.1,2.4,1.5l3.7-1.6c1.3-0.5,3.3-1.6,4.4-2.4l4-2.8
					c1.1-0.8,2.9-2.2,4-3.1l1.3-1.2c1-0.9,2.5-0.7,3.2,0.5l0.6,1.1c0.7,1.2,1.4,1.1,1.6-0.3l2.2-18.7c0.2-1.4,1.1-3.3,2.1-4.3
					l1.3-1.3c1-1,1.2-2.7,0.4-3.8L776.9,411z"/>
			</g>
			<g>
				<path class="st1" d="M745,453.9c0-1.4-1-2.2-2.3-1.8s-3.3,1.1-4.6,1.6c-1.3,0.5-2.3,1.9-2.3,3.2c0,1.3,1.1,2.4,2.5,2.4h1.7
					c1.4,0,3.1-0.4,3.7-1c0.7-0.5,1.2-2.1,1.2-3.5V453.9z"/>
			</g>
			<g>
				<path class="st1" d="M729.2,453.8c-1-0.4-2.9-1-4.3-1.2c0,0-2.7-0.4-1.9,2c0.8,2.4,0.4,4,0.4,4c-0.3,1.4-0.2,3.6,0.2,4.9
					l1.1,3.4c0.4,1.3,1.6,1.7,2.7,0.8l2.3-1.9c1.1-0.9,1.9-2.8,1.9-4.2v-4.1c0-1.4-0.2-2.6-0.4-2.7
					C731.2,454.7,730.2,454.2,729.2,453.8z"/>
			</g>
			<g>
				<path class="st1" d="M665.7,592.8c-1.1-0.9-2.6-2.6-3.4-3.7c0,0-2.5-3.5-8.9,4.6c-6.4,8.2-15.9,15.7-16.5,16.1s-10,2-10,2
					c-1.4,0.2-2.6,1.5-2.7,2.9c0,0-0.7,7.6,0.2,9.6c1,2,5.4,0.2,5.2,4.2c-0.2,4-3.8,6.4,0,6.6c3.8,0.2,3.8,0.2,3.8,0.2
					c0.5-0.1,1.8-1,2.7-2.1c0,0,0.5-0.5,5.5,2c5,2.5,7.5,4.2,7.5,4.2c1.1,0.8,3.1,1,4.4,0.5c0,0,4.2-1.7,5-6.4
					c0.8-4.8,4.6-13.5,6.4-14.3c1.8-0.8,3.6-3.2,3.4-4.1c-0.2-0.9-4.1-9.1-4.1-9.1c-0.6-1.3-0.1-2.9,1-3.7c0,0,2.3-1.6,3.1-4.2
					S665.7,592.8,665.7,592.8z"/>
			</g>
			<g>
				<path class="st1" d="M703.9,566.5c1.7,3.8-5.6,7.6-7.4,6.6c-1.4-0.8-0.7-4.7,0.2-7C696.7,566.1,703.1,564.6,703.9,566.5z"/>
			</g>
			<g>
				<path class="st1" d="M693,569.9c-1.8-0.5-6,5.5-4.8,7.4c0.7,1.1,3.3,1,4.8-0.2C695.6,575,694.3,570.3,693,569.9z"/>
			</g>
			<g>
				<path class="st1" d="M705.1,575c-1.4-0.1-1.3,3.7-5,5.8c-3.3,1.9-5.6,0-9.9,2c-2.9,1.4-4.9,3.6-4.6,4.2c0.5,0.8,5.6-2.2,8-0.2
					c0.9,0.8,0.5,1.5,1.6,3.2c1.4,2,3.9,3.8,5.2,3.2c1.4-0.7,0.2-4.1,1.8-5c1.4-0.8,3.1,1.4,4.4,0.8
					C709.3,587.7,707.6,575.3,705.1,575z"/>
			</g>
			<g>
				<path class="st1" d="M680.1,530.7c1.3-0.7,5.5,2.4,6.4,6.6c0.6,2.8-0.7,4-0.6,9.8c0,2.5,0,3.7,0.6,4.6c2.2,3.5,7.9,1.8,8.8,4.3
					c0.6,1.7-1.3,4.6-3.4,5.1c-1.9,0.4-3-1.2-6.9-4.3c-7-5.6-10.8-6.5-10.7-9.4c0-1.3,0.7-2.5,1.6-4c1.2-2,2-2.4,2.8-3.6
					C681.4,536,678.7,531.4,680.1,530.7z"/>
			</g>
			<g>
				<path class="st1" d="M420,27.3c-6,12.7-9.9,16.3-18.3,17.1c-8.4,0.8-13.1,0.8-23.1,12.7c-9.9,11.9-16.6,28.7-16.6,28.7
					c-0.5,1.3,0,3,1.1,3.8l3.5,2.6c1.1,0.8,2.4,0.4,2.8-0.9c0,0,4.8-14.7,16.7-22.6c11.9-8,22.3-12.3,23.5-12.7
					c1.2-0.4,12.3,3.6,14.3-3.2c2-6.8,6.4-22.7,6.4-23.9C430.3,27.7,420,27.3,420,27.3z"/>
			</g>
			<g>
				<path class="st1" d="M366.2,102.6c0-1.4-0.9-3.1-2.1-3.8l-2.4-1.4c-1.2-0.7-2.6-0.2-3.2,1l-6.4,14.8c-0.5,1.3-1.5,3.3-2.2,4.6
					c0,0-2.4,4.5,1.2,6.1c3.6,1.6,5.4,4.3,5.4,4.3c0.8,1.2,2.4,2.5,3.7,3.1l3.7,1.6c1.3,0.5,3.5,1,4.8,1h6.9c1.4,0,1.4-0.2,0-0.4
					c0,0-7.4-1.2-8.6-11.1S366.2,102.6,366.2,102.6z"/>
			</g>
		</g>
	</g>
</g>
</svg>
