<?xml version="1.0" encoding="utf-8"?>
<!-- Generator: Adobe Illustrator 26.5.1, SVG Export Plug-In . SVG Version: 6.00 Build 0)  -->
<svg version="1.1" xmlns="http://www.w3.org/2000/svg" xmlns:xlink="http://www.w3.org/1999/xlink" x="0px" y="0px"
	 viewBox="0 0 1020.5 934.4" style="enable-background:new 0 0 1020.5 934.4;" xml:space="preserve">
<style type="text/css">
	.st0{fill:#89BA28;}
	.st1{fill:none;stroke:#40220D;stroke-width:2;stroke-miterlimit:10;}
</style>
<g id="レイヤー_1">
</g>
<g id="layer">
	<g>
		<path class="st0" d="M347.4,155.7c0,0-52.1-14.7-55.3-16.7s-27-13.1-31.8-9.5c-4.8,3.6-32.2,27-37,30.2s-28.2,1.2-18.3,9.9
			c9.9,8.7,25.4,17.9,25.4,17.9l6,4.4l-5.2,8.4l-7.2-8.4c0,0-14.7,6.4-16.3,8.4s-1.6,18.3-1.6,18.3l29.4-4l2.8,11.9
			c0,0-9.5,8.7-12.3,9.1s-7.6,11.1-7.6,11.1l15.5,18.7l19.9,6.4l-11.9,18.3l-14.7,11.1c0,0,32.2-11.9,33.4-12.7
			c1.2-0.8,16.7-17.9,16.7-17.9l1.2-17.9l17.9-0.8c0,0,33,14.3,35.4,14.7c2.4,0.4-5.2-21.1,32.2,15.9s49.3,52.5,49.3,62
			c0,9.5,0,29.8,0,29.8s0.8-3.6,2.4,19.5c1.6,23.1,7.6,34.6,10.3,41.8c2.8,7.2,24.3,21.1,25.1,26.2c0.8,5.2,6,23.5,10.7,29.4
			c4.8,6,20.7,19.1,20.7,19.1s-2.8-8.4-3.2-9.5c-0.4-1.2-0.4-1.2-0.4-1.2L462.4,475l-2-11.5l6-0.4c0,0,13.9,12.4,21.1,23.9
			c7.2,11.5,15.9,18.3,15.9,21.8c0,3.6-2,17.1,4.4,19.1c6.4,2,22.3,11.5,28.6,14.3c6.4,2.8,16.7-1.6,20.7,0c4,1.6,6,7.6,9.5,9.9
			c3.6,2.4,15.5,0.4,20.3,4.8c4.8,4.4,11.1,11.9,12.3,14.3c1.2,2.4,7.2,8.4,11.9,9.5c4.8,1.2,6.8,1.6,10.7,2.8c4,1.2,6.8,0,6.8,0
			l8.4-2.8c0,0,5.2,19.1,2.4,23.5c-2.8,4.4-13.1,17.9-14.7,19.9s-9.1,8.4-5.2,15.1c4,6.8,14.3,22.3,17.1,29.8
			c2.8,7.6,0.8,9.5,9.5,18.7c8.7,9.1,21.9,9.5,22.7,19.9c0.8,10.3,5.6,49.7-1.6,65.2c-7.2,15.5-10.7,43.3-9.9,53.3
			c0.8,9.9,3.6,16.7,3.6,22.7s-8.7,14.7-9.1,23.5c-0.4,8.7,2,27.8,2.8,31.4c0.8,3.6,9.9,8,9.9,8l16.7-2c0,0-5.2-0.8,2-13.9
			c7.2-13.1,8.4-26.2,7.6-30.6c-0.8-4.4-3.5-21.5,0.2-23.9c3.8-2.4,10.1-8.7,14.1-13.1c4-4.4,6.8,2.8,22.3-16.3
			c15.5-19.1,27.8-21.1,34.6-32.2s0.8-18.3,15.5-35.8s37.8-10.3,41.8-30.6c4-20.3,0.4-26.6,12.7-41.4c12.3-14.7,26.2-27.4,6-33.4
			c-20.3-6-48.1,2.4-63.2-19.5c-15.1-21.9-23.9-31.8-31.4-31.8c-7.6,0-15.1-1.6-29-9.5c-13.9-8-24.7-10.7-31-10.3
			c-6.4,0.4-23.5-1.2-23.5-1.2s-6.8,0.4-11.5,4s-19.5,5.6-23.5,5.6c-4,0-15.5,4-15.9-8.4c-0.4-12.3,2.8-20.7-0.4-22.7
			s-20.3-2.8-21.9-2.4c-1.6,0.4-2-10.3-2-10.3s14.3-15.5,7.2-16.7s-14.3-3.2-16.3,3.2s-7.2,13.5-13.5,12.3
			c-6.4-1.2-20.3-9.9-20.7-21.9c-0.4-11.9,6.8-32.6,9.9-34.2s2.8-3.6,12.7-2.4c9.9,1.2,26.6-4.4,33.8-3.6c7.2,0.8,13.5,3.2,15.5,8.7
			s-0.4,11.9,4.8,17.9s5.2,6,5.2,6s5.2-9.5,4-14.3c-1.2-4.8-3.6-6-6-13.9c-2.4-8-8.4-10.3,6-18.7c14.3-8.4,19.5-9.1,19.5-16.7
			c0-7.6,1.2-17.5,4-23.5c2.8-6,9.1-9.5,12.7-11.1s7.2-12.3,7.2-12.3s8.7-9.1,11.1-10.3c2.4-1.2,13.5-4,14.7-4
			c1.2,0-8,11.1-3.2,11.5c4.8,0.4,8-1.6,15.5-6c7.6-4.4,3.2-11.1-2.4-12.3c-5.6-1.2-9.5-8.4-9.1-10.7s5.2-9.1-2-8
			c-7.2,1.2-23.5,9.9-23.5,9.9s7.6-13.5,15.5-15.9s23.1-7.6,23.1-7.6s15.1,5.6,17.9-0.4c2.8-6,12.3-11.9,9.9-18.7
			c-2.4-6.8-13.9-6.8-21.1-20.7c-7.2-13.9-8-37.8-15.5-35.8c-7.6,2-11.1,13.1-11.9,14.3c-0.8,1.2-7.2,2.4-8.7-1.2
			c-1.6-3.6-6.4-19.5-9.1-21.5c-2.8-2-16.7-13.1-20.3-13.5s-17.1-8-18.3,0.8c-1.2,8.7,1.2,23.5,1.6,25.8c0.4,2.4-2,13.9-2,18.3
			s2.4,12.7,1.2,18.3c-1.2,5.6-3.6,10.7-3.6,18.3s-1.6,19.9-5.6,18.7c-4-1.2-22.7-16.7-21.1-25.4s-37.4-15.1-42.9-26.6
			c-5.6-11.5-19.1-26.2-4.4-42.1s37-29.8,39.8-36.6c2.8-6.8-2.8-16.3,3.6-19.9s20.3-14.3,20.3-16.3c0-2-4.8-24.3-9.5-22.7
			c-4.8,1.6-21.1,27.8-21.1,27.8s-5.6-19.5-7.2-23.1s-7.6-11.9-10.7-3.2c-3.2,8.7-8.7-3.2-8.7-3.2s10.3-1.6,4-11.1
			c-6.4-9.5-10.7-21.1-13.5-13.9s-11.1,16.3-9.5,19.9s13.1,8.7,13.5,10.7c0.4,2-2.8,9.1-2.8,10.7s-2.4,12.7-2.8,13.9s-8,0-8,0
			s11.5-9.1-9.9-4c-21.5,5.2-23.5,6-23.5,6s-12.3,1.2-17.9,2s-27.8-4-31-4s-8-11.1-8.7-12.3s-28.2-16.3-38.6-18.3
			c-10.3-2-7.2-8-27.8,3.6C365.3,163.7,347.4,155.7,347.4,155.7z"/>
		<path class="st0" d="M739.5,332.3c0,0-10.7,14.3-11.9,19.5c-1.2,5.2-11.5,10.3-2,10.3s14.3,0.8,16.3,5.6s10.7,2.4,13.5,0
			s-0.4-17.5-7.2-19.5C741.5,346.2,739.5,332.3,739.5,332.3z"/>
		<path class="st0" d="M603.1,510.4c0,0,13.5-9.9,23.9-4.8c10.3,5.2,19.9,13.1,22.3,13.5c2.4,0.4,11.5,2.4,3.6,4.8
			c-8,2.4-11.5,5.2-14.3,2.4c-2.8-2.8-8.7-8.2-11.1-9.7c-2.4-1.5-10.7-4.3-10.7-4.3L603.1,510.4z"/>
		<path class="st0" d="M660.8,523.5h20.3c0,0,3.6,6.8,2.4,7.2c-1.2,0.4-11.2,0-11.2,0L660.8,523.5z"/>
		<path class="st0" d="M595.6,86.9c0,0-15.9,9.1-16.7,17.1c-0.8,8-7.6,28.2,3.6,32.6s24.3,8.4,31.8,8.7s23.9,5.2,26.2,7.2
			c2.4,2,12.7,14.3,12.7,14.3s2,8.7,1.6,11.5s-6.4,14.7-6.8,16.3s-17.5,4.8-18.3,8c-0.8,3.2,2,13.5,4.4,14.7
			c2.4,1.2,10.7-0.8,16.7,2.4c6,3.2,10.3,8,12.3,10.3s12.3,8,20.3,11.5s0.8-10.7-5.6-16.3c-6.4-5.6-9.1-15.5-2.4-11.1
			s19.5,14.7,19.5,14.7s-8.7-17.9-9.9-22.3c-1.2-4.4-4.8-15.1-2.8-15.1s13.5,8.7,19.9,9.9s4.4-19.5,0-26.2
			c-4.4-6.8-23.9-21.1-23.9-29c0-8-33.8-27.4-33.8-27.4s-19.9-2.4-22.3-4.4c-2.4-2-5.2-15.1-5.2-15.1s-0.8-18.7-4.8-15.9
			c-4,2.8-6.8,11.1-6.8,16.3c0,5.2,5.2,24.3,5.2,24.3s-5.6,4.3-8.7-2.2S595.6,86.9,595.6,86.9z"/>
		<path class="st0" d="M425.8,76.6c0,0-10.7,1.4-10.7,6.5s-1.2,14.2-2,18.2s-7.2,15.5-4.4,18.7c2.8,3.2,14.7,10.3,17.1,8
			c2.4-2.4,10.7-15.5,11.1-17.5c0.4-2-0.8-7.6,7.2-9.9c8-2.4,12.3-11.9,9.9-13.1s-11.1-7.2-14.7-6.8C435.7,81,425.8,76.6,425.8,76.6
			z"/>
		<path class="st0" d="M463.6,96.9l-19.1,8c0,0-1.2,9.9,0,11.9c1.2,2,0.9,8.9-0.5,11.6c-1.5,2.7,12.9,5.9,12.9,5.9s15.9,2.8,16.3,4
			c0.4,1.2-9.9,9.5-9.9,9.5s-21.9-7.6-16.7,0c5.2,7.6,15.5,9.1,15.5,9.1s2.4,4.3,4.4,5.7s17.1-6.1,22.3-6.1c5.2,0,14.7,0.8,18.7,2.8
			s11.9,1.6,11.9,1.6l-9.9-8c0,0,10.7-6,9.9-9.1c-0.8-3.2-13.1-15.4-13.1-15.4l1.2-20l-15.9-11.5l2.4,24.8H491l-9.4-22l-1.7,7.6
			l-9.9,1.6l4.4-6.3l-6.4-5.6l-1.6,5.6h-4L463.6,96.9z"/>
		<polygon class="st0" points="536.3,88.1 525.3,84.6 519.3,91.7 527.8,95.3 527.8,102.5 516.8,98.9 522,116.4 526.6,126.3 
			542.7,119.5 545.1,105.4 537.1,96.9 538.7,91.7 		"/>
		<polygon class="st0" points="558.2,83.1 548.6,84.6 548.6,100.1 555.4,116 558.2,107.6 566.9,99.5 570.5,88.9 		"/>
		<polygon class="st0" points="499.3,83.1 495.8,90.1 505.3,102.5 510.9,83.1 		"/>
		<path class="st0" d="M621,89.3c0,0-1.2,12.8,2,13.2c3.2,0.4,8.7,2.3,11.5,2.9c2.8,0.6,9.7,0.8,6.6-8.1c-3-8.8-10.2-5.3-12.6-8.1
			C626.2,86.5,621,89.3,621,89.3z"/>
		<path class="st0" d="M599.1,205.8l13.5,6l2.4,7.6c0,0,9.9-2,9.9,0s-25.8,6-25.8,6l-8.7,2.4L599.1,205.8z"/>
	</g>
	<g>
		<g>
			<g>
				<path class="st1" d="M343.1,157.6c-1.3-0.6-3.4-1.3-4.7-1.7c0,0-49.7-14-52.8-16s-27-13.1-31.8-9.5c-4.8,3.6-32.2,27-37,30.2
					c-4.8,3.2-28.2,1.2-18.3,9.9c9.9,8.7,23.3,16.6,23.3,16.6c1.2,0.7,3.1,2,4.2,2.8l1.9,1.4c1.1,0.8,1.4,2.5,0.7,3.6l-2.5,4.1
					c-0.7,1.2-2.1,1.3-3,0.2l-3.9-4.5c-0.9-1.1-2.7-1.5-4-0.9c0,0-12.4,5.4-14,7.3s-1.6,15.8-1.6,15.8c0,1.4,1.1,2.4,2.5,2.2
					l24.4-3.3c1.4-0.2,2.8,0.8,3.1,2.1l1.6,7c0.3,1.4-0.3,3.2-1.3,4.2c0,0-7.7,7-10.5,7.4c-2.8,0.4-6.5,8.8-6.5,8.8
					c-0.6,1.3-0.3,3.2,0.6,4.3l12.3,14.8c0.9,1.1,2.7,2.3,4,2.7l15.1,4.8c1.3,0.4,1.8,1.7,1,2.9l-9.2,14.1c-0.8,1.2-2.3,2.8-3.4,3.6
					l-10.7,8.1c-1.1,0.8-0.9,1.1,0.4,0.6c0,0,29.8-11.1,31-11.8s15-16,15-16c0.9-1,1.8-3,1.9-4.4l0.9-12.9c0.1-1.4,1.3-2.6,2.7-2.6
					l12.8-0.6c1.4-0.1,3.6,0.3,4.8,0.9c0,0,30.7,13.3,33.1,13.7c2.4,0.4-5.2-21.1,32.2,15.9s49.3,52.5,49.3,62s0,27.3,0,27.3
					c0,1.4,0.2,1.4,0.5,0.1c0,0,0.2-1.1,1.8,21.9c1.6,23.1,7.6,34.6,10.3,41.8c2.8,7.2,24.3,21.1,25.1,26.2
					c0.8,5.2,6,23.5,10.7,29.4c4.8,6,18.7,17.5,18.7,17.5c1.1,0.9,1.6,0.5,1.1-0.8c0,0-2-6-2.4-7.1c-0.4-1.2-1-2.1-1.8-3.3
					l-13.9-20.5c-0.8-1.1-1.6-3.2-1.8-4.6l-1.1-6.6c-0.2-1.4,0.7-2.6,2.1-2.7l0.9-0.1c1.4-0.1,3.4,0.6,4.4,1.5
					c0,0,12,10.7,19.2,22.2c7.2,11.5,15.9,18.3,15.9,21.8s-2,17.1,4.4,19.1s22.3,11.5,28.6,14.3c6.4,2.8,16.7-1.6,20.7,0
					c4,1.6,6,7.6,9.5,9.9c3.6,2.4,15.5,0.4,20.3,4.8s11.1,11.9,12.3,14.3c1.2,2.4,7.2,8.4,11.9,9.5c4.8,1.2,6.8,1.6,10.7,2.8
					c4,1.2,4.4,1,4.4,1c1.3-0.5,3.4-1.4,4.7-1.8l3.6-1.2c1.3-0.4,2.7,0.3,3.1,1.6c0,0,4.5,16.6,1.7,21c-2.8,4.4-13.1,17.9-14.7,19.9
					c-1.6,2-9.1,8.4-5.2,15.1s14.3,22.3,17.1,29.8c2.8,7.6,0.8,9.5,9.5,18.7c8.7,9.1,21.9,9.5,22.7,19.9c0.8,10.3,5.6,49.7-1.6,65.2
					c-7.2,15.5-10.7,43.3-9.9,53.3c0.8,9.9,3.6,16.7,3.6,22.7c0,6-8.7,14.7-9.1,23.5c-0.4,8.7,2,27.8,2.8,31.4
					c0.8,3.6,7.7,6.9,7.7,6.9c1.3,0.6,3.4,1,4.8,0.8l11.7-1.4c1.4-0.2,1.4-0.5,0-0.7c0,0-2.7-0.4,4.5-13.5
					c7.2-13.1,8.4-26.2,7.6-30.6c-0.8-4.4-3.5-21.5,0.2-23.9c3.8-2.4,10.1-8.7,14.1-13.1c4-4.4,6.8,2.8,22.3-16.3
					c15.5-19.1,27.8-21.1,34.6-32.2c6.8-11.1,0.8-18.3,15.5-35.8c14.7-17.5,37.8-10.3,41.8-30.6c4-20.3,0.4-26.6,12.7-41.4
					c12.3-14.7,26.2-27.4,6-33.4c-20.3-6-48.1,2.4-63.2-19.5C752.8,597.9,744,588,736.5,588c-7.6,0-15.1-1.6-29-9.5
					c-13.9-8-24.7-10.7-31-10.3s-20.9-1-20.9-1c-1.4-0.1-3.6-0.2-5-0.1c0,0-4.2,0.2-9,3.8s-19.5,5.6-23.5,5.6c-4,0-15.5,4-15.9-8.4
					c-0.4-12.3,2.8-20.7-0.4-22.7s-20.3-2.8-21.9-2.4c-1.6,0.4-1.9-7.8-1.9-7.8c-0.1-1.4,0.7-3.4,1.6-4.4c0,0,12.6-13.7,5.4-14.8
					c-7.2-1.2-14.3-3.2-16.3,3.2s-7.2,13.5-13.5,12.3c-6.4-1.2-20.3-9.9-20.7-21.9c-0.4-11.9,6.8-32.6,9.9-34.2s2.8-3.6,12.7-2.4
					c9.9,1.2,26.6-4.4,33.8-3.6c7.2,0.8,13.5,3.2,15.5,8.7s-0.4,11.9,4.8,17.9c5.2,6,5.7,5,6.4,3.7c0,0,4-7.3,2.8-12.1
					c-1.2-4.8-3.6-6-6-13.9s-8.4-10.3,6-18.7s19.5-9.1,19.5-16.7c0-7.6,1.2-17.5,4-23.5c2.8-6,9.1-9.5,12.7-11.1s6.4-9.9,6.4-9.9
					c0.4-1.3,1.6-3.2,2.5-4.2c0,0,7-7.3,9.4-8.5c2.4-1.2,13.5-4,14.7-4c1.2,0-8,11.1-3.2,11.5c4.8,0.4,8-1.6,15.5-6
					c7.6-4.4,3.2-11.1-2.4-12.3c-5.6-1.2-9.5-8.4-9.1-10.7s5.2-9.1-2-8c-7.2,1.2-21.2,8.7-21.2,8.7c-1.2,0.7-1.7,0.2-1-1
					c0,0,6.3-11.3,14.3-13.7s20.7-6.7,20.7-6.7c1.3-0.4,3.5-0.4,4.8,0.1c0,0,12.7,4.7,15.5-1.3c2.8-6,12.3-11.9,9.9-18.7
					c-2.4-6.8-13.9-6.8-21.1-20.7c-7.2-13.9-8-37.8-15.5-35.8c-7.6,2-11.1,13.1-11.9,14.3c-0.8,1.2-7.2,2.4-8.7-1.2
					c-1.6-3.6-6.4-19.5-9.1-21.5c-2.8-2-16.7-13.1-20.3-13.5c-3.6-0.4-17.1-8-18.3,0.8c-1.2,8.7,1.2,23.5,1.6,25.8
					c0.4,2.4-2,13.9-2,18.3c0,4.4,2.4,12.7,1.2,18.3s-3.6,10.7-3.6,18.3c0,7.6-1.6,19.9-5.6,18.7c-4-1.2-22.7-16.7-21.1-25.4
					s-37.4-15.1-42.9-26.6c-5.6-11.5-19.1-26.2-4.4-42.1s37-29.8,39.8-36.6c2.8-6.8-2.8-16.3,3.6-19.9s20.3-14.3,20.3-16.3
					c0-2-4.8-24.3-9.5-22.7S583.9,177,583.9,177c-0.7,1.2-1.6,1.1-2-0.3c0,0-4.9-17.1-6.5-20.6s-7.6-11.9-10.7-3.2
					c-3.2,8.7-7.7-0.9-7.7-0.9c-0.6-1.3,0.1-2.5,1.4-2.7c0,0,7.8-1.2,1.5-10.7s-10.7-21.1-13.5-13.9s-11.1,16.3-9.5,19.9
					s13.1,8.7,13.5,10.7c0.4,2-2.8,9.1-2.8,10.7s-2.4,12.7-2.8,13.9s-5.5,0.4-5.5,0.4c-1.4-0.2-1.6-1.1-0.5-2c0,0,9.6-7.6-11.9-2.4
					c-21.5,5.2-21.5,5.2-21.5,5.2c-1.1,0.4-3.1,0.9-4.5,1c0,0-9.8,0.9-15.4,1.7s-27.8-4-31-4s-8-11.1-8.7-12.3s-28.2-16.3-38.6-18.3
					c-10.3-2-7.2-8-27.8,3.6C358.7,164.5,343.1,157.6,343.1,157.6z"/>
			</g>
			<g>
				<path class="st1" d="M733.2,335.6c-0.2-1.4-1-1.6-1.9-0.5c0,0-9.2,12.3-10.4,17.5s-11.5,10.3-2,10.3s14.3,0.8,16.3,5.6
					s10.7,2.4,13.5,0s-0.4-17.5-7.2-19.5C734.9,347,733.2,335.6,733.2,335.6z"/>
			</g>
			<g>
				<path class="st1" d="M599,511.6c-1.4-0.2-1.6-1-0.5-1.9c0,0,11.5-8.4,21.8-3.3c10.3,5.2,19.9,13.1,22.3,13.5
					c2.4,0.4,11.5,2.4,3.6,4.8c-8,2.4-11.5,5.2-14.3,2.4s-8.7-8.2-11.1-9.7c-2.4-1.5-8.3-3.5-8.3-3.5c-1.3-0.4-3.5-1-4.9-1.2
					L599,511.6z"/>
			</g>
			<g>
				<path class="st1" d="M656.3,525.7c-1.2-0.7-1-1.3,0.4-1.3h15.2c1.4,0,3.1,1,3.7,2.2c0,0,2.4,4.5,1.2,4.9
					c-1.2,0.4-8.7,0.1-8.7,0.1c-1.4-0.1-3.5-0.7-4.7-1.4L656.3,525.7z"/>
			</g>
			<g>
				<path class="st1" d="M589.2,90.2c-0.2-1.4-1.3-1.9-2.5-1.3c0,0-13.7,7.9-14.5,15.8c-0.8,8-7.6,28.2,3.6,32.6s24.3,8.4,31.8,8.7
					c7.6,0.4,23.9,5.2,26.2,7.2c2.4,2,11.1,12.4,11.1,12.4c0.9,1.1,1.9,3,2.2,4.4c0,0,1.4,6.3,1,9.1s-6.4,14.7-6.8,16.3
					c-0.4,1.6-17.5,4.8-18.3,8c-0.8,3.2,2,13.5,4.4,14.7c2.4,1.2,10.7-0.8,16.7,2.4c6,3.2,10.3,8,12.3,10.3s12.3,8,20.3,11.5
					c8,3.6,0.8-10.7-5.6-16.3s-9.1-15.5-2.4-11.1s17.5,13.1,17.5,13.1c1.1,0.9,1.5,0.6,0.9-0.7c0,0-7.6-15.6-8.8-20
					c-1.2-4.4-4.8-15.1-2.8-15.1s13.5,8.7,19.9,9.9s4.4-19.5,0-26.2c-4.4-6.8-23.9-21.1-23.9-29c0-8-31.6-26.2-31.6-26.2
					c-1.2-0.7-3.3-1.4-4.7-1.6c0,0-17.4-2.1-19.8-4.1c-2.4-2-4.6-12.6-4.6-12.6c-0.3-1.4-0.6-3.6-0.6-5c0,0-0.7-16.2-4.7-13.4
					c-4,2.8-6.8,11.1-6.8,16.3s4.5,21.8,4.5,21.8c0.4,1.3-0.2,3.1-1.3,4c0,0-3.6,2.7-6.7-3.8S589.2,90.2,589.2,90.2z"/>
			</g>
			<g>
				<path class="st1" d="M421.5,78.4c-1.3-0.6-3.4-0.9-4.8-0.7c0,0-8.2,1.1-8.2,6.1c0,5.1-1.2,14.2-2,18.2s-7.2,15.5-4.4,18.7
					c2.8,3.2,14.7,10.3,17.1,8c2.4-2.4,10.7-15.5,11.1-17.5c0.4-2-0.8-7.6,7.2-9.9s12.3-11.9,9.9-13.1c-2.4-1.2-11.1-7.2-14.7-6.8
					C429.1,81.8,421.5,78.4,421.5,78.4z"/>
			</g>
			<g>
				<path class="st1" d="M456.4,100.1c0.3-1.4-0.5-2-1.8-1.5l-14.4,6c-1.3,0.5-2.5,2.1-2.6,3.5c0,0-0.9,7.4,0.3,9.4
					c1.2,2,0.9,8.9-0.5,11.6c-1.5,2.7,10.4,5.3,10.4,5.3c1.4,0.3,3.6,0.7,5,1c0,0,13.4,2.3,13.8,3.5c0.4,1.2-8,8-8,8
					c-1.1,0.9-3,1.2-4.4,0.8c0,0-19.5-6.7-14.3,0.8c5.2,7.6,13,8.8,13,8.8c1.4,0.2,3.1,1.4,3.7,2.6c0,0,1.2,2.1,3.1,3.5
					c2,1.4,17.1-6.1,22.3-6.1c5.2,0,14.7,0.8,18.7,2.8s9.4,1.7,9.4,1.7c1.4-0.1,1.6-0.8,0.6-1.7l-6-4.8c-1.1-0.9-1-2.1,0.2-2.8
					c0,0,8.5-4.7,7.7-7.9c-0.8-3.2-11.3-13.6-11.3-13.6c-1-1-1.7-2.9-1.6-4.3l0.9-14.9c0.1-1.4-0.8-3.2-1.9-4l-11.8-8.6
					c-1.1-0.8-1.9-0.4-1.8,1l1.9,19.8c0.1,1.4-0.4,2.5-1.1,2.5s-1.8-1-2.4-2.3l-7.5-17.4c-0.5-1.3-1.2-1.2-1.5,0.1l-0.6,2.6
					c-0.3,1.4-1.7,2.6-3,2.9l-5,0.8c-1.4,0.2-1.8-0.5-1.1-1.7l1.5-2.2c0.8-1.1,0.6-2.8-0.5-3.7l-2.6-2.3c-1-0.9-2.2-0.6-2.6,0.8
					l-0.2,0.7c-0.4,1.3-1.6,2.4-2.7,2.4s-1.8-1.1-1.5-2.5L456.4,100.1z"/>
			</g>
			<g>
				<path class="st1" d="M530.9,90.7c-0.7-1-2.3-2.1-3.6-2.6l-6.2-2c-1.3-0.4-3.1,0.1-4,1.1l-2.8,3.3c-0.9,1.1-0.6,2.4,0.7,2.9
					l3.9,1.6c1.3,0.5,2.3,2.1,2.3,3.5v2.1c0,1.4-1.1,2.2-2.4,1.7l-6.2-2c-1.3-0.4-2.1,0.3-1.7,1.6l3.7,12.7c0.4,1.3,1.2,3.5,1.8,4.7
					l2.5,5.4c0.6,1.3,2.1,1.9,3.4,1.3l11.4-4.8c1.3-0.5,2.5-2.1,2.7-3.5l1.5-9.1c0.2-1.4-0.4-3.3-1.3-4.3l-4.5-4.9
					c-0.9-1-1.4-2.9-1-4.3l0.1-0.3C531.8,93.6,531.5,91.7,530.9,90.7z"/>
			</g>
			<g>
				<path class="st1" d="M553.9,85c-1.3-0.6-3.4-0.9-4.8-0.7l-4.6,0.7c-1.4,0.2-2.5,1.5-2.5,2.9v10.5c0,1.4,0.4,3.6,1,4.8l4.8,11.3
					c0.5,1.3,1.3,1.2,1.8-0.1l1.2-3.6c0.4-1.3,1.6-3.2,2.7-4.1l5-4.7c1-0.9,2.2-2.8,2.7-4.1l2-5.8c0.4-1.3-0.2-2.9-1.5-3.5L553.9,85
					z"/>
			</g>
			<g>
				<path class="st1" d="M495.2,83.9c-1.4,0-3,1-3.7,2.3l-1.3,2.5c-0.6,1.2-0.4,3.2,0.4,4.3l6.5,8.4c0.8,1.1,1.9,0.9,2.2-0.4
					l4.2-14.6c0.4-1.3-0.4-2.4-1.8-2.4H495.2z"/>
			</g>
			<g>
				<path class="st1" d="M616.6,88.9c-1.2,0.7-2.3,2.3-2.5,3.7c0,0-1,10.3,2.2,10.6c3.2,0.4,8.7,2.3,11.5,2.9
					c2.8,0.6,9.7,0.8,6.6-8.1c-3-8.8-10.2-5.3-12.6-8.1C619.6,87.3,616.6,88.9,616.6,88.9z"/>
			</g>
			<g>
				<path class="st1" d="M591.6,209c0.5-1.3,2-1.9,3.2-1.3l8.9,3.9c1.3,0.6,2.7,2.1,3.1,3.4l0.9,2.7c0.4,1.3,1.9,2.2,3.2,1.9
					c0,0,7.5-1.5,7.5,0.5c0,2-23.3,5.6-23.3,5.6c-1.4,0.2-3.6,0.7-4.9,1l-3.9,1.1c-1.3,0.4-2-0.4-1.5-1.7L591.6,209z"/>
			</g>
		</g>
	</g>
</g>
</svg>
